:SAMPLES-PER-SECOND 30
:FULLY-SPECIFIED
:DEGREES
337
root  -17.2754 34.4895 -14.9788 -169.609 0.851501 179.487
RightUpLeg  -9.164 -17.1992 -1.62746
RightLeg  6.57234 -2.72997 -0.13637
RightFoot  3.55335 0.0192709 -0.0303436
RightToes  -28.5018 -0.13244 -0.241167
Spine  -2.60812 -0.174258 0.0735554
Spine1  -5.25081 -0.385925 0.720494
HEad  -61.8474 -0.210359 7.0905
LeftShoulder1  -1.94126e-019 -3.10601e-018 -2.51263e-017
LeftArm  -26.2384 28.9404 -79.8561
LeftForeArm  22.3843 -11.2438 -1.95595
LeftHand  -0.458118 0.454667 10.8112
RightShoulder  -4.96962e-017 0 -2.36833e-017
RightArm  -51.2214 -25.4557 73.9264
RightForeArm  54.2901 7.72019 1.33302
RightHand  0.082124 -6.07914 -16.8424
LeftUpLeg  -8.26517 1.48124 3.25257
LeftLeg  6.25828 11.9798 0.534269
LeftFoot  4.10526 -0.00894943 0.962343
LeftToes  -23.2135 1.7763e-006 6.54387e-008
338
root  -17.2196 34.4829 -15.0031 -169.476 1.11981 179.66
RightUpLeg  -9.39926 -16.9699 -1.35454
RightLeg  6.7838 -2.6683 -0.143134
RightFoot  3.39382 0.0185401 -0.0198992
RightToes  -28.3072 -0.131322 -0.239932
Spine  -2.6477 -0.139836 0.150805
Spine1  -5.33071 -0.314194 0.869102
HEad  -61.1658 -0.0315847 6.69046
LeftShoulder1  -1.94126e-019 -3.10601e-018 -2.51263e-017
LeftArm  -26.2752 29.0173 -79.9142
LeftForeArm  22.4223 -11.1692 -1.94232
LeftHand  -0.457198 0.463994 10.809
RightShoulder  -4.96962e-017 0 -2.36833e-017
RightArm  -51.2422 -25.4757 73.8181
RightForeArm  54.3935 7.6586 1.32334
RightHand  0.0783392 -6.09478 -16.8317
LeftUpLeg  -8.33676 2.46684 3.48489
LeftLeg  6.31558 11.2608 0.513781
LeftFoot  4.02607 -0.00574345 0.891868
LeftToes  -23.8351 1.7763e-006 6.54387e-008
339
root  -17.1421 34.4771 -15.0287 -169.369 1.53635 179.807
RightUpLeg  -9.65571 -16.6768 -1.09383
RightLeg  7.05424 -2.52495 -0.147342
RightFoot  3.20716 0.0173959 -0.00354909
RightToes  -28.2818 -0.130119 -0.238496
Spine  -2.68475 -0.102622 0.204995
Spine1  -5.406 -0.233667 0.973772
HEad  -60.1093 0.24522 6.20444
LeftShoulder1  -1.94126e-019 -3.10601e-018 -2.51263e-017
LeftArm  -26.1356 29.1382 -79.8922
LeftForeArm  22.4699 -11.1491 -1.93834
LeftHand  -0.453507 0.456068 10.7771
RightShoulder  -4.96962e-017 0 -2.36833e-017
RightArm  -51.1561 -25.4317 73.8022
RightForeArm  54.4215 7.64287 1.32095
RightHand  0.0751608 -6.12133 -16.8297
LeftUpLeg  -8.3308 3.35994 3.71365
LeftLeg  6.3435 10.7652 0.496625
LeftFoot  3.95415 -0.00397268 0.841878
LeftToes  -24.4466 1.7763e-006 6.54387e-008
340
root  -17.0405 34.4702 -15.0572 -169.279 2.07405 179.959
RightUpLeg  -9.90749 -16.1094 -0.814639
RightLeg  7.35272 -2.54362 -0.161731
RightFoot  2.92778 0.0165069 0.00915532
RightToes  -28.0092 -0.128875 -0.236935
Spine  -2.70963 -0.0868272 0.250888
Spine1  -5.45759 -0.191578 1.06505
HEad  -58.7881 0.69965 5.62094
LeftShoulder1  -1.94126e-019 -3.10601e-018 -2.51263e-017
LeftArm  -25.8579 29.232 -79.7886
LeftForeArm  22.5823 -11.1291 -1.93517
LeftHand  -0.449276 0.466845 10.7314
RightShoulder  -4.96962e-017 0 -2.36833e-017
RightArm  -51.0793 -25.293 73.8691
RightForeArm  54.3516 7.71021 1.33132
RightHand  0.0684738 -6.07122 -16.7358
LeftUpLeg  -8.25215 4.03289 3.98158
LeftLeg  6.33464 10.6159 0.488172
LeftFoot  3.9102 -0.00434569 0.823339
LeftToes  -25.1164 1.7763e-006 6.54387e-008
341
root  -16.9141 34.4668 -15.0965 -169.199 2.67091 -179.868
RightUpLeg  -10.0691 -15.4545 -0.489779
RightLeg  7.52064 -2.56866 -0.170889
RightFoot  2.74586 0.0159778 0.0167158
RightToes  -27.808 -0.127631 -0.235323
Spine  -2.70971 -0.0964322 0.292711
Spine1  -5.45991 -0.199979 1.15154
HEad  -57.2934 1.27775 5.00525
LeftShoulder1  -1.94126e-019 -3.10601e-018 -2.51263e-017
LeftArm  -25.5323 29.2341 -79.635
LeftForeArm  22.6153 -11.0876 -1.92901
LeftHand  -0.447039 0.561014 10.7722
RightShoulder  -4.96962e-017 0 -2.36833e-017
RightArm  -50.9415 -25.1018 74.0206
RightForeArm  54.2985 7.88016 1.35683
RightHand  0.064303 -6.02879 -16.6743
LeftUpLeg  -8.07723 4.57909 4.29577
LeftLeg  6.22381 10.6823 0.470629
LeftFoot  3.90498 -0.00630358 0.827518
LeftToes  -25.5757 1.7763e-006 6.54387e-008
342
root  -16.7648 34.4681 -15.1482 -169.133 3.34804 -179.703
RightUpLeg  -10.0978 -14.7063 -0.156727
RightLeg  7.4994 -2.63423 -0.174293
RightFoot  2.56715 0.0155722 0.0225112
RightToes  -27.3754 -0.126429 -0.233737
Spine  -2.71568 -0.106481 0.32805
Spine1  -5.47367 -0.211272 1.2279
HEad  -55.5257 1.85619 4.34854
LeftShoulder1  -1.94126e-019 -3.10601e-018 -2.51263e-017
LeftArm  -25.1702 29.2354 -79.4609
LeftForeArm  22.5808 -11.136 -1.93749
LeftHand  -0.45181 0.602645 10.9781
RightShoulder  -4.96962e-017 0 -2.36833e-017
RightArm  -50.6819 -24.9192 74.1518
RightForeArm  54.3637 8.01075 1.37533
RightHand  0.0645091 -5.98929 -16.6746
LeftUpLeg  -7.7985 4.8614 4.63426
LeftLeg  6.0312 11.0872 0.451203
LeftFoot  3.97023 -0.0108294 0.869649
LeftToes  -25.8499 1.7763e-006 6.54387e-008
343
root  -16.5993 34.4653 -15.2159 -169.087 4.09668 -179.547
RightUpLeg  -10.0429 -14.0965 0.174013
RightLeg  7.39888 -2.46432 -0.158654
RightFoot  2.41768 0.014692 0.0350895
RightToes  -27.2287 -0.125311 -0.232251
Spine  -2.73483 -0.118384 0.371249
Spine1  -5.51403 -0.229384 1.31742
HEad  -53.4061 2.41679 3.60044
LeftShoulder1  -1.94126e-019 -3.10601e-018 -2.51263e-017
LeftArm  -24.8765 29.2079 -79.3101
LeftForeArm  22.625 -11.3212 -1.97264
LeftHand  -0.452332 0.634553 11.0617
RightShoulder  -4.96962e-017 0 -2.36833e-017
RightArm  -50.0284 -24.8848 74.207
RightForeArm  54.2699 8.23669 1.40591
RightHand  0.0607027 -5.98672 -16.5738
LeftUpLeg  -7.45915 5.27545 4.97685
LeftLeg  5.85343 11.432 0.429812
LeftFoot  4.00471 -0.0148057 0.901233
LeftToes  -26.02 1.7763e-006 6.54387e-008
